<?xml version="1.0" encoding="UTF-8" standalone="no"?><svg xmlns="http://www.w3.org/2000/svg" xmlns:xlink="http://www.w3.org/1999/xlink" contentStyleType="text/css" height="723px" preserveAspectRatio="none" style="width:644px;height:723px;background:#FFFFFF;" version="1.1" viewBox="0 0 644 723" width="644px" zoomAndPan="magnify"><defs/><g><rect height="26.2969" style="stroke:#00000000;stroke-width:1.0;fill:none;" width="129" x="259.25" y="10"/><text fill="#000000" font-family="sans-serif" font-size="14" font-weight="bold" lengthAdjust="spacing" textLength="119" x="264.25" y="27.9951">Fund Governor</text><rect fill="#FFFFFF" height="29.1328" style="stroke:#181818;stroke-width:1.0;" width="10" x="188" y="149.7266"/><rect fill="#FFFFFF" height="30" style="stroke:#181818;stroke-width:1.0;" width="10" x="188" y="207.9922"/><rect fill="#FFFFFF" height="30" style="stroke:#181818;stroke-width:1.0;" width="10" x="589" y="344.5234"/><rect fill="#FFFFFF" height="30" style="stroke:#181818;stroke-width:1.0;" width="10" x="589" y="403.6563"/><rect fill="#FFFFFF" height="30" style="stroke:#181818;stroke-width:1.0;" width="10" x="589" y="462.7891"/><rect fill="#FFFFFF" height="30" style="stroke:#181818;stroke-width:1.0;" width="10" x="589" y="521.9219"/><rect fill="#FFFFFF" height="30" style="stroke:#181818;stroke-width:1.0;" width="10" x="589" y="581.0547"/><rect height="373.0625" style="stroke:#000000;stroke-width:1.5;fill:none;" width="628.5" x="10" y="252.9922"/><rect height="312.7969" style="stroke:#000000;stroke-width:1.5;fill:none;" width="480.5" x="148" y="306.2578"/><line style="stroke:#181818;stroke-width:0.5;fill:none;stroke-dasharray:5.0,5.0;" x1="39" x2="39" y1="118.5938" y2="643.0547"/><line style="stroke:#181818;stroke-width:0.5;fill:none;stroke-dasharray:5.0,5.0;" x1="193" x2="193" y1="118.5938" y2="643.0547"/><line style="stroke:#181818;stroke-width:0.5;fill:none;stroke-dasharray:5.0,5.0;" x1="593.5" x2="593.5" y1="118.5938" y2="643.0547"/><text fill="#000000" font-family="sans-serif" font-size="14" lengthAdjust="spacing" textLength="32" x="20" y="115.292">User</text><ellipse cx="39" cy="50.7969" fill="#E2E2F0" rx="8" ry="8" style="stroke:#181818;stroke-width:0.5;"/><path d="M39,58.7969 L39,85.7969 M26,66.7969 L52,66.7969 M39,85.7969 L26,100.7969 M39,85.7969 L52,100.7969 " fill="none" style="stroke:#181818;stroke-width:0.5;"/><text fill="#000000" font-family="sans-serif" font-size="14" lengthAdjust="spacing" textLength="32" x="20" y="655.0498">User</text><ellipse cx="39" cy="666.8516" fill="#E2E2F0" rx="8" ry="8" style="stroke:#181818;stroke-width:0.5;"/><path d="M39,674.8516 L39,701.8516 M26,682.8516 L52,682.8516 M39,701.8516 L26,716.8516 M39,701.8516 L52,716.8516 " fill="none" style="stroke:#181818;stroke-width:0.5;"/><text fill="#000000" font-family="sans-serif" font-size="14" lengthAdjust="spacing" textLength="64" x="158" y="115.292">Governor</text><ellipse cx="193" cy="50.7969" fill="#E2E2F0" rx="8" ry="8" style="stroke:#181818;stroke-width:0.5;"/><path d="M193,58.7969 L193,85.7969 M180,66.7969 L206,66.7969 M193,85.7969 L180,100.7969 M193,85.7969 L206,100.7969 " fill="none" style="stroke:#181818;stroke-width:0.5;"/><text fill="#000000" font-family="sans-serif" font-size="14" lengthAdjust="spacing" textLength="64" x="158" y="655.0498">Governor</text><ellipse cx="193" cy="666.8516" fill="#E2E2F0" rx="8" ry="8" style="stroke:#181818;stroke-width:0.5;"/><path d="M193,674.8516 L193,701.8516 M180,682.8516 L206,682.8516 M193,701.8516 L180,716.8516 M193,701.8516 L206,716.8516 " fill="none" style="stroke:#181818;stroke-width:0.5;"/><rect fill="#E2E2F0" height="30.2969" rx="2.5" ry="2.5" style="stroke:#181818;stroke-width:0.5;" width="49" x="569.5" y="87.2969"/><text fill="#000000" font-family="sans-serif" font-size="14" lengthAdjust="spacing" textLength="35" x="576.5" y="107.292">Fund</text><rect fill="#E2E2F0" height="30.2969" rx="2.5" ry="2.5" style="stroke:#181818;stroke-width:0.5;" width="49" x="569.5" y="642.0547"/><text fill="#000000" font-family="sans-serif" font-size="14" lengthAdjust="spacing" textLength="35" x="576.5" y="662.0498">Fund</text><rect fill="#FFFFFF" height="29.1328" style="stroke:#181818;stroke-width:1.0;" width="10" x="188" y="149.7266"/><rect fill="#FFFFFF" height="30" style="stroke:#181818;stroke-width:1.0;" width="10" x="188" y="207.9922"/><rect fill="#FFFFFF" height="30" style="stroke:#181818;stroke-width:1.0;" width="10" x="589" y="344.5234"/><rect fill="#FFFFFF" height="30" style="stroke:#181818;stroke-width:1.0;" width="10" x="589" y="403.6563"/><rect fill="#FFFFFF" height="30" style="stroke:#181818;stroke-width:1.0;" width="10" x="589" y="462.7891"/><rect fill="#FFFFFF" height="30" style="stroke:#181818;stroke-width:1.0;" width="10" x="589" y="521.9219"/><rect fill="#FFFFFF" height="30" style="stroke:#181818;stroke-width:1.0;" width="10" x="589" y="581.0547"/><polygon fill="#181818" points="176,145.7266,186,149.7266,176,153.7266,180,149.7266" style="stroke:#181818;stroke-width:1.0;"/><line style="stroke:#181818;stroke-width:1.0;" x1="39" x2="182" y1="149.7266" y2="149.7266"/><text fill="#000000" font-family="sans-serif" font-size="13" lengthAdjust="spacing" textLength="62" x="46" y="144.6606">propose()</text><polygon fill="#181818" points="50,174.8594,40,178.8594,50,182.8594,46,178.8594" style="stroke:#181818;stroke-width:1.0;"/><line style="stroke:#181818;stroke-width:1.0;stroke-dasharray:2.0,2.0;" x1="44" x2="192" y1="178.8594" y2="178.8594"/><text fill="#000000" font-family="sans-serif" font-size="13" lengthAdjust="spacing" textLength="125" x="56" y="173.7935">watting votingDelay</text><polygon fill="#181818" points="176,203.9922,186,207.9922,176,211.9922,180,207.9922" style="stroke:#181818;stroke-width:1.0;"/><line style="stroke:#181818;stroke-width:1.0;" x1="39" x2="182" y1="207.9922" y2="207.9922"/><text fill="#000000" font-family="sans-serif" font-size="13" lengthAdjust="spacing" textLength="67" x="46" y="202.9263">castVote()</text><path d="M10,252.9922 L175,252.9922 L175,260.125 L165,270.125 L10,270.125 L10,252.9922 " fill="#EEEEEE" style="stroke:#000000;stroke-width:1.5;"/><rect fill="none" height="373.0625" style="stroke:#000000;stroke-width:1.5;" width="628.5" x="10" y="252.9922"/><text fill="#000000" font-family="sans-serif" font-size="13" font-weight="bold" lengthAdjust="spacing" textLength="120" x="25" y="266.0591">propose passed</text><polygon fill="#181818" points="176,287.2578,186,291.2578,176,295.2578,180,291.2578" style="stroke:#181818;stroke-width:1.0;"/><line style="stroke:#181818;stroke-width:1.0;" x1="39" x2="182" y1="291.2578" y2="291.2578"/><text fill="#000000" font-family="sans-serif" font-size="13" lengthAdjust="spacing" textLength="53" x="46" y="286.1919">excute()</text><path d="M148,306.2578 L477,306.2578 L477,313.3906 L467,323.3906 L148,323.3906 L148,306.2578 " fill="#EEEEEE" style="stroke:#000000;stroke-width:1.5;"/><rect fill="none" height="312.7969" style="stroke:#000000;stroke-width:1.5;" width="480.5" x="148" y="306.2578"/><text fill="#000000" font-family="sans-serif" font-size="13" font-weight="bold" lengthAdjust="spacing" textLength="284" x="163" y="319.3247">can excute function when Fund closed</text><polygon fill="#181818" points="577,340.5234,587,344.5234,577,348.5234,581,344.5234" style="stroke:#181818;stroke-width:1.0;"/><line style="stroke:#181818;stroke-width:1.0;" x1="198" x2="583" y1="344.5234" y2="344.5234"/><text fill="#000000" font-family="sans-serif" font-size="13" lengthAdjust="spacing" textLength="92" x="205" y="339.4575">setFundData()</text><polygon fill="#181818" points="577,399.6563,587,403.6563,577,407.6563,581,403.6563" style="stroke:#181818;stroke-width:1.0;"/><line style="stroke:#181818;stroke-width:1.0;" x1="198" x2="583" y1="403.6563" y2="403.6563"/><text fill="#000000" font-family="sans-serif" font-size="13" lengthAdjust="spacing" textLength="101" x="205" y="398.5903">setBonusData()</text><polygon fill="#181818" points="577,458.7891,587,462.7891,577,466.7891,581,462.7891" style="stroke:#181818;stroke-width:1.0;"/><line style="stroke:#181818;stroke-width:1.0;" x1="198" x2="583" y1="462.7891" y2="462.7891"/><text fill="#000000" font-family="sans-serif" font-size="13" lengthAdjust="spacing" textLength="112" x="205" y="457.7231">setManageData()</text><polygon fill="#181818" points="577,517.9219,587,521.9219,577,525.9219,581,521.9219" style="stroke:#181818;stroke-width:1.0;"/><line style="stroke:#181818;stroke-width:1.0;" x1="198" x2="583" y1="521.9219" y2="521.9219"/><text fill="#000000" font-family="sans-serif" font-size="13" lengthAdjust="spacing" textLength="372" x="205" y="516.856">startFundLiquidation() , need assgin a liquidation manager</text><polygon fill="#181818" points="577,577.0547,587,581.0547,577,585.0547,581,581.0547" style="stroke:#181818;stroke-width:1.0;"/><line style="stroke:#181818;stroke-width:1.0;" x1="198" x2="583" y1="581.0547" y2="581.0547"/><text fill="#000000" font-family="sans-serif" font-size="13" lengthAdjust="spacing" textLength="354" x="205" y="575.9888">changeInvestPolicy() , will effect in the next close period</text><!--MD5=[9a30cd6a602e4356d56d24113578c708]
@startuml FundGovernor
autoactivate on
title Fund Governor
actor User
actor Governor
User->Governor : propose() 
return watting votingDelay
deactivate Governor

User->Governor: castVote()
deactivate Governor
group propose passed
User->Governor:excute()
group can excute function when Fund closed
Governor->Fund:setFundData() 
deactivate Fund
Governor->Fund:setBonusData() 
deactivate Fund
Governor->Fund:setManageData() 
deactivate Fund
Governor->Fund:startFundLiquidation() , need assgin a liquidation manager

deactivate Fund
Governor->Fund:changeInvestPolicy() , will effect in the next close period

deactivate Fund
end
end
@enduml

PlantUML version 1.2022.6(Tue Jun 21 17:34:49 UTC 2022)
(GPL source distribution)
Java Runtime: OpenJDK Runtime Environment
JVM: OpenJDK 64-Bit Server VM
Default Encoding: UTF-8
Language: en
Country: null
--></g></svg>